<mxfile host="app.diagrams.net" modified="2024-07-18T06:07:28.855Z" agent="Mozilla/5.0 (Macintosh; Intel Mac OS X 10_15_7) AppleWebKit/537.36 (KHTML, like Gecko) Chrome/126.0.0.0 Safari/537.36" etag="6oXEPtaD0DbN0vpR1OKd" version="24.7.1" type="github">
  <diagram id="JJmWhjyOwM89aCiY69w7" name="第 1 页">
    <mxGraphModel dx="1420" dy="916" grid="1" gridSize="10" guides="1" tooltips="1" connect="1" arrows="1" fold="1" page="1" pageScale="1" pageWidth="3300" pageHeight="4681" math="0" shadow="0">
      <root>
        <mxCell id="0" />
        <mxCell id="1" parent="0" />
        <mxCell id="9VdhH4_OahOFBLT25fH9-60" style="edgeStyle=orthogonalEdgeStyle;rounded=0;orthogonalLoop=1;jettySize=auto;html=1;exitX=1;exitY=0.5;exitDx=0;exitDy=0;entryX=0.5;entryY=1;entryDx=0;entryDy=0;dashed=1;" parent="1" source="9VdhH4_OahOFBLT25fH9-56" target="9VdhH4_OahOFBLT25fH9-7" edge="1">
          <mxGeometry relative="1" as="geometry">
            <Array as="points">
              <mxPoint x="910" y="455" />
              <mxPoint x="910" y="700" />
              <mxPoint x="97" y="700" />
            </Array>
          </mxGeometry>
        </mxCell>
        <mxCell id="9VdhH4_OahOFBLT25fH9-56" value="" style="rounded=0;whiteSpace=wrap;html=1;dashed=1;" parent="1" vertex="1">
          <mxGeometry x="760" y="263" width="130" height="406" as="geometry" />
        </mxCell>
        <mxCell id="9VdhH4_OahOFBLT25fH9-55" value="" style="rounded=0;whiteSpace=wrap;html=1;dashed=1;" parent="1" vertex="1">
          <mxGeometry x="596" y="264" width="126" height="406" as="geometry" />
        </mxCell>
        <mxCell id="9VdhH4_OahOFBLT25fH9-8" style="rounded=0;orthogonalLoop=1;jettySize=auto;html=1;entryX=1;entryY=0.5;entryDx=0;entryDy=0;exitX=0;exitY=0.5;exitDx=0;exitDy=0;" parent="1" source="9VdhH4_OahOFBLT25fH9-1" target="9VdhH4_OahOFBLT25fH9-3" edge="1">
          <mxGeometry relative="1" as="geometry" />
        </mxCell>
        <mxCell id="9VdhH4_OahOFBLT25fH9-9" style="edgeStyle=none;rounded=0;orthogonalLoop=1;jettySize=auto;html=1;exitX=0;exitY=0.5;exitDx=0;exitDy=0;entryX=1;entryY=0.5;entryDx=0;entryDy=0;" parent="1" source="9VdhH4_OahOFBLT25fH9-1" target="9VdhH4_OahOFBLT25fH9-4" edge="1">
          <mxGeometry relative="1" as="geometry" />
        </mxCell>
        <mxCell id="9VdhH4_OahOFBLT25fH9-10" style="edgeStyle=none;rounded=0;orthogonalLoop=1;jettySize=auto;html=1;exitX=0;exitY=0.5;exitDx=0;exitDy=0;entryX=1;entryY=0.5;entryDx=0;entryDy=0;" parent="1" source="9VdhH4_OahOFBLT25fH9-1" target="9VdhH4_OahOFBLT25fH9-5" edge="1">
          <mxGeometry relative="1" as="geometry" />
        </mxCell>
        <mxCell id="9VdhH4_OahOFBLT25fH9-11" style="edgeStyle=none;rounded=0;orthogonalLoop=1;jettySize=auto;html=1;exitX=0;exitY=0.5;exitDx=0;exitDy=0;entryX=1;entryY=0.5;entryDx=0;entryDy=0;" parent="1" source="9VdhH4_OahOFBLT25fH9-1" target="9VdhH4_OahOFBLT25fH9-6" edge="1">
          <mxGeometry relative="1" as="geometry" />
        </mxCell>
        <mxCell id="9VdhH4_OahOFBLT25fH9-12" style="edgeStyle=none;rounded=0;orthogonalLoop=1;jettySize=auto;html=1;exitX=0;exitY=0.5;exitDx=0;exitDy=0;entryX=1;entryY=0.5;entryDx=0;entryDy=0;" parent="1" source="9VdhH4_OahOFBLT25fH9-1" target="9VdhH4_OahOFBLT25fH9-7" edge="1">
          <mxGeometry relative="1" as="geometry" />
        </mxCell>
        <mxCell id="9VdhH4_OahOFBLT25fH9-59" style="edgeStyle=none;rounded=0;orthogonalLoop=1;jettySize=auto;html=1;exitX=1;exitY=0.5;exitDx=0;exitDy=0;entryX=0;entryY=0.5;entryDx=0;entryDy=0;" parent="1" source="9VdhH4_OahOFBLT25fH9-1" target="9VdhH4_OahOFBLT25fH9-13" edge="1">
          <mxGeometry relative="1" as="geometry" />
        </mxCell>
        <mxCell id="9VdhH4_OahOFBLT25fH9-1" value="&amp;nbsp;global&lt;br&gt;&amp;nbsp;&lt;span style=&quot;background-color: initial;&quot;&gt;resources&lt;/span&gt;&lt;div&gt;init&lt;/div&gt;" style="ellipse;whiteSpace=wrap;html=1;aspect=fixed;" parent="1" vertex="1">
          <mxGeometry x="196" y="420" width="80" height="80" as="geometry" />
        </mxCell>
        <mxCell id="9VdhH4_OahOFBLT25fH9-3" value="config file" style="rounded=0;whiteSpace=wrap;html=1;" parent="1" vertex="1">
          <mxGeometry x="47" y="340" width="100" height="40" as="geometry" />
        </mxCell>
        <mxCell id="9VdhH4_OahOFBLT25fH9-4" value="dict file" style="rounded=0;whiteSpace=wrap;html=1;" parent="1" vertex="1">
          <mxGeometry x="47" y="390" width="100" height="40" as="geometry" />
        </mxCell>
        <mxCell id="9VdhH4_OahOFBLT25fH9-5" value="mysql" style="rounded=0;whiteSpace=wrap;html=1;" parent="1" vertex="1">
          <mxGeometry x="47" y="440" width="100" height="40" as="geometry" />
        </mxCell>
        <mxCell id="9VdhH4_OahOFBLT25fH9-6" value="redis" style="rounded=0;whiteSpace=wrap;html=1;" parent="1" vertex="1">
          <mxGeometry x="47" y="490" width="100" height="40" as="geometry" />
        </mxCell>
        <mxCell id="9VdhH4_OahOFBLT25fH9-7" value="other services" style="rounded=0;whiteSpace=wrap;html=1;" parent="1" vertex="1">
          <mxGeometry x="47" y="540" width="100" height="40" as="geometry" />
        </mxCell>
        <mxCell id="9VdhH4_OahOFBLT25fH9-17" style="edgeStyle=none;rounded=0;orthogonalLoop=1;jettySize=auto;html=1;exitX=1;exitY=0.5;exitDx=0;exitDy=0;entryX=0;entryY=0.5;entryDx=0;entryDy=0;" parent="1" source="9VdhH4_OahOFBLT25fH9-13" target="9VdhH4_OahOFBLT25fH9-15" edge="1">
          <mxGeometry relative="1" as="geometry" />
        </mxCell>
        <mxCell id="9VdhH4_OahOFBLT25fH9-18" style="edgeStyle=none;rounded=0;orthogonalLoop=1;jettySize=auto;html=1;exitX=1;exitY=0.5;exitDx=0;exitDy=0;entryX=0;entryY=0.5;entryDx=0;entryDy=0;" parent="1" source="9VdhH4_OahOFBLT25fH9-13" target="9VdhH4_OahOFBLT25fH9-16" edge="1">
          <mxGeometry relative="1" as="geometry" />
        </mxCell>
        <mxCell id="9VdhH4_OahOFBLT25fH9-65" style="edgeStyle=orthogonalEdgeStyle;rounded=0;orthogonalLoop=1;jettySize=auto;html=1;exitX=0.5;exitY=0;exitDx=0;exitDy=0;entryX=0.5;entryY=1;entryDx=0;entryDy=0;" parent="1" source="9VdhH4_OahOFBLT25fH9-13" target="9VdhH4_OahOFBLT25fH9-78" edge="1">
          <mxGeometry relative="1" as="geometry" />
        </mxCell>
        <mxCell id="9VdhH4_OahOFBLT25fH9-66" value="注册服务" style="edgeLabel;html=1;align=center;verticalAlign=middle;resizable=0;points=[];" parent="9VdhH4_OahOFBLT25fH9-65" vertex="1" connectable="0">
          <mxGeometry x="0.1152" relative="1" as="geometry">
            <mxPoint as="offset" />
          </mxGeometry>
        </mxCell>
        <mxCell id="9VdhH4_OahOFBLT25fH9-13" value="register handler" style="rounded=0;whiteSpace=wrap;html=1;" parent="1" vertex="1">
          <mxGeometry x="300" y="440" width="110" height="40" as="geometry" />
        </mxCell>
        <mxCell id="9VdhH4_OahOFBLT25fH9-30" style="edgeStyle=none;rounded=0;orthogonalLoop=1;jettySize=auto;html=1;exitX=1;exitY=0.5;exitDx=0;exitDy=0;entryX=0;entryY=0.5;entryDx=0;entryDy=0;" parent="1" source="9VdhH4_OahOFBLT25fH9-15" target="9VdhH4_OahOFBLT25fH9-20" edge="1">
          <mxGeometry relative="1" as="geometry" />
        </mxCell>
        <mxCell id="9VdhH4_OahOFBLT25fH9-31" style="edgeStyle=none;rounded=0;orthogonalLoop=1;jettySize=auto;html=1;exitX=1;exitY=0.5;exitDx=0;exitDy=0;entryX=0;entryY=0.5;entryDx=0;entryDy=0;" parent="1" source="9VdhH4_OahOFBLT25fH9-15" target="9VdhH4_OahOFBLT25fH9-21" edge="1">
          <mxGeometry relative="1" as="geometry" />
        </mxCell>
        <mxCell id="9VdhH4_OahOFBLT25fH9-32" style="edgeStyle=none;rounded=0;orthogonalLoop=1;jettySize=auto;html=1;exitX=1;exitY=0.5;exitDx=0;exitDy=0;entryX=0;entryY=0.5;entryDx=0;entryDy=0;" parent="1" source="9VdhH4_OahOFBLT25fH9-15" target="9VdhH4_OahOFBLT25fH9-22" edge="1">
          <mxGeometry relative="1" as="geometry" />
        </mxCell>
        <mxCell id="9VdhH4_OahOFBLT25fH9-33" style="edgeStyle=none;rounded=0;orthogonalLoop=1;jettySize=auto;html=1;exitX=1;exitY=0.5;exitDx=0;exitDy=0;entryX=0;entryY=0.5;entryDx=0;entryDy=0;" parent="1" source="9VdhH4_OahOFBLT25fH9-15" target="9VdhH4_OahOFBLT25fH9-23" edge="1">
          <mxGeometry relative="1" as="geometry" />
        </mxCell>
        <mxCell id="9VdhH4_OahOFBLT25fH9-54" style="edgeStyle=none;rounded=0;orthogonalLoop=1;jettySize=auto;html=1;exitX=0.5;exitY=1;exitDx=0;exitDy=0;" parent="1" source="9VdhH4_OahOFBLT25fH9-15" target="9VdhH4_OahOFBLT25fH9-53" edge="1">
          <mxGeometry relative="1" as="geometry" />
        </mxCell>
        <mxCell id="9VdhH4_OahOFBLT25fH9-15" value="search list" style="rounded=0;whiteSpace=wrap;html=1;fillColor=#dae8fc;strokeColor=#6c8ebf;" parent="1" vertex="1">
          <mxGeometry x="452" y="384" width="110" height="40" as="geometry" />
        </mxCell>
        <mxCell id="9VdhH4_OahOFBLT25fH9-16" value="recommend list" style="rounded=0;whiteSpace=wrap;html=1;" parent="1" vertex="1">
          <mxGeometry x="455.5" y="494" width="110" height="40" as="geometry" />
        </mxCell>
        <mxCell id="9VdhH4_OahOFBLT25fH9-20" value="validate" style="rounded=0;whiteSpace=wrap;html=1;" parent="1" vertex="1">
          <mxGeometry x="604" y="324" width="110" height="40" as="geometry" />
        </mxCell>
        <mxCell id="9VdhH4_OahOFBLT25fH9-34" style="edgeStyle=none;rounded=0;orthogonalLoop=1;jettySize=auto;html=1;exitX=1;exitY=0.5;exitDx=0;exitDy=0;entryX=0;entryY=0.5;entryDx=0;entryDy=0;" parent="1" source="9VdhH4_OahOFBLT25fH9-21" target="9VdhH4_OahOFBLT25fH9-24" edge="1">
          <mxGeometry relative="1" as="geometry" />
        </mxCell>
        <mxCell id="9VdhH4_OahOFBLT25fH9-35" style="edgeStyle=none;rounded=0;orthogonalLoop=1;jettySize=auto;html=1;exitX=1;exitY=0.5;exitDx=0;exitDy=0;entryX=0;entryY=0.5;entryDx=0;entryDy=0;" parent="1" source="9VdhH4_OahOFBLT25fH9-21" target="9VdhH4_OahOFBLT25fH9-25" edge="1">
          <mxGeometry relative="1" as="geometry" />
        </mxCell>
        <mxCell id="9VdhH4_OahOFBLT25fH9-36" style="edgeStyle=none;rounded=0;orthogonalLoop=1;jettySize=auto;html=1;exitX=1;exitY=0.5;exitDx=0;exitDy=0;entryX=0;entryY=0.5;entryDx=0;entryDy=0;" parent="1" source="9VdhH4_OahOFBLT25fH9-21" target="9VdhH4_OahOFBLT25fH9-26" edge="1">
          <mxGeometry relative="1" as="geometry" />
        </mxCell>
        <mxCell id="9VdhH4_OahOFBLT25fH9-37" style="edgeStyle=none;rounded=0;orthogonalLoop=1;jettySize=auto;html=1;exitX=1;exitY=0.5;exitDx=0;exitDy=0;entryX=0;entryY=0.5;entryDx=0;entryDy=0;" parent="1" source="9VdhH4_OahOFBLT25fH9-21" target="9VdhH4_OahOFBLT25fH9-27" edge="1">
          <mxGeometry relative="1" as="geometry" />
        </mxCell>
        <mxCell id="9VdhH4_OahOFBLT25fH9-38" style="edgeStyle=none;rounded=0;orthogonalLoop=1;jettySize=auto;html=1;exitX=1;exitY=0.5;exitDx=0;exitDy=0;entryX=0;entryY=0.5;entryDx=0;entryDy=0;" parent="1" source="9VdhH4_OahOFBLT25fH9-21" target="9VdhH4_OahOFBLT25fH9-28" edge="1">
          <mxGeometry relative="1" as="geometry" />
        </mxCell>
        <mxCell id="9VdhH4_OahOFBLT25fH9-39" style="edgeStyle=none;rounded=0;orthogonalLoop=1;jettySize=auto;html=1;exitX=1;exitY=0.5;exitDx=0;exitDy=0;entryX=0;entryY=0.5;entryDx=0;entryDy=0;" parent="1" source="9VdhH4_OahOFBLT25fH9-21" target="9VdhH4_OahOFBLT25fH9-29" edge="1">
          <mxGeometry relative="1" as="geometry" />
        </mxCell>
        <mxCell id="9VdhH4_OahOFBLT25fH9-21" value="item list" style="rounded=0;whiteSpace=wrap;html=1;" parent="1" vertex="1">
          <mxGeometry x="604" y="384" width="110" height="40" as="geometry" />
        </mxCell>
        <mxCell id="9VdhH4_OahOFBLT25fH9-22" value="page" style="rounded=0;whiteSpace=wrap;html=1;" parent="1" vertex="1">
          <mxGeometry x="604" y="444" width="110" height="40" as="geometry" />
        </mxCell>
        <mxCell id="9VdhH4_OahOFBLT25fH9-23" value="response" style="rounded=0;whiteSpace=wrap;html=1;" parent="1" vertex="1">
          <mxGeometry x="604" y="504" width="110" height="40" as="geometry" />
        </mxCell>
        <mxCell id="9VdhH4_OahOFBLT25fH9-41" style="edgeStyle=none;rounded=0;orthogonalLoop=1;jettySize=auto;html=1;exitX=1;exitY=0.5;exitDx=0;exitDy=0;entryX=0;entryY=0.5;entryDx=0;entryDy=0;" parent="1" source="9VdhH4_OahOFBLT25fH9-24" target="9VdhH4_OahOFBLT25fH9-40" edge="1">
          <mxGeometry relative="1" as="geometry" />
        </mxCell>
        <mxCell id="9VdhH4_OahOFBLT25fH9-24" value="recall" style="rounded=0;whiteSpace=wrap;html=1;" parent="1" vertex="1">
          <mxGeometry x="770" y="324" width="110" height="40" as="geometry" />
        </mxCell>
        <mxCell id="9VdhH4_OahOFBLT25fH9-25" value="filter" style="rounded=0;whiteSpace=wrap;html=1;" parent="1" vertex="1">
          <mxGeometry x="770" y="384" width="110" height="40" as="geometry" />
        </mxCell>
        <mxCell id="9VdhH4_OahOFBLT25fH9-26" value="merge" style="rounded=0;whiteSpace=wrap;html=1;" parent="1" vertex="1">
          <mxGeometry x="770" y="444" width="110" height="40" as="geometry" />
        </mxCell>
        <mxCell id="9VdhH4_OahOFBLT25fH9-27" value="predict" style="rounded=0;whiteSpace=wrap;html=1;" parent="1" vertex="1">
          <mxGeometry x="770" y="504" width="110" height="40" as="geometry" />
        </mxCell>
        <mxCell id="9VdhH4_OahOFBLT25fH9-28" value="score" style="rounded=0;whiteSpace=wrap;html=1;" parent="1" vertex="1">
          <mxGeometry x="770" y="564" width="110" height="40" as="geometry" />
        </mxCell>
        <mxCell id="9VdhH4_OahOFBLT25fH9-29" value="rank" style="rounded=0;whiteSpace=wrap;html=1;" parent="1" vertex="1">
          <mxGeometry x="770" y="624" width="110" height="40" as="geometry" />
        </mxCell>
        <mxCell id="9VdhH4_OahOFBLT25fH9-45" style="edgeStyle=none;rounded=0;orthogonalLoop=1;jettySize=auto;html=1;exitX=1;exitY=0.5;exitDx=0;exitDy=0;entryX=0;entryY=0.5;entryDx=0;entryDy=0;" parent="1" source="9VdhH4_OahOFBLT25fH9-40" target="9VdhH4_OahOFBLT25fH9-42" edge="1">
          <mxGeometry relative="1" as="geometry" />
        </mxCell>
        <mxCell id="9VdhH4_OahOFBLT25fH9-46" style="edgeStyle=none;rounded=0;orthogonalLoop=1;jettySize=auto;html=1;exitX=1;exitY=0.5;exitDx=0;exitDy=0;entryX=0;entryY=0.5;entryDx=0;entryDy=0;" parent="1" source="9VdhH4_OahOFBLT25fH9-40" target="9VdhH4_OahOFBLT25fH9-43" edge="1">
          <mxGeometry relative="1" as="geometry" />
        </mxCell>
        <mxCell id="9VdhH4_OahOFBLT25fH9-48" style="edgeStyle=none;rounded=0;orthogonalLoop=1;jettySize=auto;html=1;exitX=1;exitY=0.5;exitDx=0;exitDy=0;entryX=0;entryY=0.5;entryDx=0;entryDy=0;" parent="1" source="9VdhH4_OahOFBLT25fH9-40" target="9VdhH4_OahOFBLT25fH9-44" edge="1">
          <mxGeometry relative="1" as="geometry" />
        </mxCell>
        <mxCell id="9VdhH4_OahOFBLT25fH9-40" value="recall inteface" style="rounded=0;whiteSpace=wrap;html=1;dashed=1;" parent="1" vertex="1">
          <mxGeometry x="908" y="324" width="110" height="40" as="geometry" />
        </mxCell>
        <mxCell id="9VdhH4_OahOFBLT25fH9-42" value="hot" style="rounded=0;whiteSpace=wrap;html=1;" parent="1" vertex="1">
          <mxGeometry x="1040" y="267.5" width="110" height="40" as="geometry" />
        </mxCell>
        <mxCell id="9VdhH4_OahOFBLT25fH9-62" style="edgeStyle=orthogonalEdgeStyle;rounded=0;orthogonalLoop=1;jettySize=auto;html=1;exitX=1;exitY=0.5;exitDx=0;exitDy=0;entryX=0.5;entryY=1;entryDx=0;entryDy=0;dashed=1;" parent="1" source="9VdhH4_OahOFBLT25fH9-43" target="9VdhH4_OahOFBLT25fH9-7" edge="1">
          <mxGeometry relative="1" as="geometry">
            <Array as="points">
              <mxPoint x="1150" y="340" />
              <mxPoint x="1170" y="340" />
              <mxPoint x="1170" y="700" />
              <mxPoint x="97" y="700" />
            </Array>
          </mxGeometry>
        </mxCell>
        <mxCell id="9VdhH4_OahOFBLT25fH9-63" value="依赖全局资源" style="edgeLabel;html=1;align=center;verticalAlign=middle;resizable=0;points=[];" parent="9VdhH4_OahOFBLT25fH9-62" vertex="1" connectable="0">
          <mxGeometry x="0.1158" y="2" relative="1" as="geometry">
            <mxPoint as="offset" />
          </mxGeometry>
        </mxCell>
        <mxCell id="9VdhH4_OahOFBLT25fH9-43" value="vector" style="rounded=0;whiteSpace=wrap;html=1;" parent="1" vertex="1">
          <mxGeometry x="1040" y="324" width="110" height="40" as="geometry" />
        </mxCell>
        <mxCell id="9VdhH4_OahOFBLT25fH9-44" value="cf" style="rounded=0;whiteSpace=wrap;html=1;" parent="1" vertex="1">
          <mxGeometry x="1040" y="380" width="110" height="40" as="geometry" />
        </mxCell>
        <mxCell id="9VdhH4_OahOFBLT25fH9-49" value="" style="shape=actor;whiteSpace=wrap;html=1;dashed=1;fillColor=#d5e8d4;strokeColor=#82b366;" parent="1" vertex="1">
          <mxGeometry x="335" y="130" width="40" height="60" as="geometry" />
        </mxCell>
        <mxCell id="9VdhH4_OahOFBLT25fH9-51" style="edgeStyle=none;rounded=0;orthogonalLoop=1;jettySize=auto;html=1;exitX=0.5;exitY=1;exitDx=0;exitDy=0;entryX=0.5;entryY=0;entryDx=0;entryDy=0;" parent="1" source="9VdhH4_OahOFBLT25fH9-50" target="9VdhH4_OahOFBLT25fH9-15" edge="1">
          <mxGeometry relative="1" as="geometry" />
        </mxCell>
        <mxCell id="9VdhH4_OahOFBLT25fH9-50" value="request" style="rounded=1;whiteSpace=wrap;html=1;fillColor=#dae8fc;strokeColor=#6c8ebf;" parent="1" vertex="1">
          <mxGeometry x="455.5" y="261" width="103" height="40" as="geometry" />
        </mxCell>
        <mxCell id="9VdhH4_OahOFBLT25fH9-53" value="return response" style="rounded=1;whiteSpace=wrap;html=1;fillColor=#dae8fc;strokeColor=#6c8ebf;" parent="1" vertex="1">
          <mxGeometry x="455.5" y="584" width="103" height="40" as="geometry" />
        </mxCell>
        <mxCell id="9VdhH4_OahOFBLT25fH9-57" value="function" style="text;html=1;resizable=0;autosize=1;align=center;verticalAlign=middle;points=[];fillColor=none;strokeColor=none;rounded=0;dashed=1;" parent="1" vertex="1">
          <mxGeometry x="596" y="264" width="70" height="30" as="geometry" />
        </mxCell>
        <mxCell id="9VdhH4_OahOFBLT25fH9-58" value="function" style="text;html=1;resizable=0;autosize=1;align=center;verticalAlign=middle;points=[];fillColor=none;strokeColor=none;rounded=0;dashed=1;" parent="1" vertex="1">
          <mxGeometry x="760" y="263" width="70" height="30" as="geometry" />
        </mxCell>
        <mxCell id="9VdhH4_OahOFBLT25fH9-67" style="edgeStyle=orthogonalEdgeStyle;rounded=0;orthogonalLoop=1;jettySize=auto;html=1;exitX=1;exitY=0.5;exitDx=0;exitDy=0;entryX=0;entryY=0.5;entryDx=0;entryDy=0;" parent="1" source="9VdhH4_OahOFBLT25fH9-78" target="9VdhH4_OahOFBLT25fH9-50" edge="1">
          <mxGeometry relative="1" as="geometry" />
        </mxCell>
        <mxCell id="9VdhH4_OahOFBLT25fH9-68" value="" style="shape=curlyBracket;whiteSpace=wrap;html=1;rounded=1;flipH=1;direction=north;" parent="1" vertex="1">
          <mxGeometry x="66" y="770" width="364" height="10" as="geometry" />
        </mxCell>
        <mxCell id="9VdhH4_OahOFBLT25fH9-69" value="" style="edgeStyle=none;orthogonalLoop=1;jettySize=auto;html=1;rounded=0;dashed=1;endArrow=none;endFill=0;strokeWidth=2;" parent="1" edge="1">
          <mxGeometry width="80" relative="1" as="geometry">
            <mxPoint x="440" y="320" as="sourcePoint" />
            <mxPoint x="440" y="770" as="targetPoint" />
            <Array as="points" />
          </mxGeometry>
        </mxCell>
        <mxCell id="9VdhH4_OahOFBLT25fH9-72" value="INIT" style="text;html=1;resizable=0;autosize=1;align=center;verticalAlign=middle;points=[];fillColor=none;strokeColor=none;rounded=0;" parent="1" vertex="1">
          <mxGeometry x="223" y="785" width="50" height="30" as="geometry" />
        </mxCell>
        <mxCell id="9VdhH4_OahOFBLT25fH9-73" value="" style="shape=curlyBracket;whiteSpace=wrap;html=1;rounded=1;flipH=1;direction=north;" parent="1" vertex="1">
          <mxGeometry x="500" y="770" width="660" height="10" as="geometry" />
        </mxCell>
        <mxCell id="9VdhH4_OahOFBLT25fH9-74" value="HANDLER PROCESS/API" style="text;html=1;resizable=0;autosize=1;align=center;verticalAlign=middle;points=[];fillColor=none;strokeColor=none;rounded=0;" parent="1" vertex="1">
          <mxGeometry x="745" y="785" width="170" height="30" as="geometry" />
        </mxCell>
        <mxCell id="9VdhH4_OahOFBLT25fH9-78" value="&lt;div&gt;Network framework&lt;/div&gt;&lt;div&gt;http/grpc/brpc/spex...&lt;/div&gt;" style="rhombus;whiteSpace=wrap;html=1;fillColor=#DAE8FC;" parent="1" vertex="1">
          <mxGeometry x="286.5" y="231" width="137" height="100" as="geometry" />
        </mxCell>
        <mxCell id="9VdhH4_OahOFBLT25fH9-79" style="edgeStyle=orthogonalEdgeStyle;rounded=0;orthogonalLoop=1;jettySize=auto;html=1;exitX=0.5;exitY=0;exitDx=0;exitDy=0;entryX=0;entryY=0.5;entryDx=0;entryDy=0;endArrow=classicThin;endFill=1;strokeWidth=1;" parent="1" source="9VdhH4_OahOFBLT25fH9-78" target="9VdhH4_OahOFBLT25fH9-78" edge="1">
          <mxGeometry relative="1" as="geometry">
            <Array as="points">
              <mxPoint x="355" y="211" />
              <mxPoint x="267" y="211" />
              <mxPoint x="267" y="281" />
            </Array>
          </mxGeometry>
        </mxCell>
        <mxCell id="9VdhH4_OahOFBLT25fH9-80" value="loop" style="edgeLabel;html=1;align=center;verticalAlign=middle;resizable=0;points=[];" parent="9VdhH4_OahOFBLT25fH9-79" vertex="1" connectable="0">
          <mxGeometry x="-0.2203" y="1" relative="1" as="geometry">
            <mxPoint as="offset" />
          </mxGeometry>
        </mxCell>
        <mxCell id="0BYrBF6_0vTvc-OLHNxU-8" value="" style="edgeStyle=orthogonalEdgeStyle;rounded=0;orthogonalLoop=1;jettySize=auto;html=1;" edge="1" parent="1" source="0BYrBF6_0vTvc-OLHNxU-2" target="0BYrBF6_0vTvc-OLHNxU-7">
          <mxGeometry relative="1" as="geometry" />
        </mxCell>
        <mxCell id="0BYrBF6_0vTvc-OLHNxU-2" value="rtaid 规则符合" style="rhombus;whiteSpace=wrap;html=1;" vertex="1" parent="1">
          <mxGeometry x="578.5" y="1520" width="80" height="80" as="geometry" />
        </mxCell>
        <mxCell id="0BYrBF6_0vTvc-OLHNxU-5" style="edgeStyle=orthogonalEdgeStyle;rounded=0;orthogonalLoop=1;jettySize=auto;html=1;exitX=0.5;exitY=1;exitDx=0;exitDy=0;entryX=0.5;entryY=0;entryDx=0;entryDy=0;" edge="1" parent="1" source="0BYrBF6_0vTvc-OLHNxU-3" target="0BYrBF6_0vTvc-OLHNxU-4">
          <mxGeometry relative="1" as="geometry" />
        </mxCell>
        <mxCell id="0BYrBF6_0vTvc-OLHNxU-3" value="媒体流量" style="rounded=1;whiteSpace=wrap;html=1;" vertex="1" parent="1">
          <mxGeometry x="559" y="1260" width="120" height="60" as="geometry" />
        </mxCell>
        <mxCell id="0BYrBF6_0vTvc-OLHNxU-6" style="edgeStyle=orthogonalEdgeStyle;rounded=0;orthogonalLoop=1;jettySize=auto;html=1;exitX=0.5;exitY=1;exitDx=0;exitDy=0;entryX=0.5;entryY=0;entryDx=0;entryDy=0;" edge="1" parent="1" source="0BYrBF6_0vTvc-OLHNxU-4" target="0BYrBF6_0vTvc-OLHNxU-2">
          <mxGeometry relative="1" as="geometry" />
        </mxCell>
        <mxCell id="0BYrBF6_0vTvc-OLHNxU-4" value="ads rta" style="rounded=0;whiteSpace=wrap;html=1;" vertex="1" parent="1">
          <mxGeometry x="558.5" y="1400" width="120" height="60" as="geometry" />
        </mxCell>
        <mxCell id="0BYrBF6_0vTvc-OLHNxU-22" style="edgeStyle=orthogonalEdgeStyle;rounded=0;orthogonalLoop=1;jettySize=auto;html=1;exitX=0.5;exitY=1;exitDx=0;exitDy=0;entryX=0.5;entryY=0;entryDx=0;entryDy=0;" edge="1" parent="1" source="0BYrBF6_0vTvc-OLHNxU-7" target="0BYrBF6_0vTvc-OLHNxU-9">
          <mxGeometry relative="1" as="geometry" />
        </mxCell>
        <mxCell id="0BYrBF6_0vTvc-OLHNxU-23" style="edgeStyle=orthogonalEdgeStyle;rounded=0;orthogonalLoop=1;jettySize=auto;html=1;exitX=0.5;exitY=1;exitDx=0;exitDy=0;" edge="1" parent="1" source="0BYrBF6_0vTvc-OLHNxU-7" target="0BYrBF6_0vTvc-OLHNxU-10">
          <mxGeometry relative="1" as="geometry" />
        </mxCell>
        <mxCell id="0BYrBF6_0vTvc-OLHNxU-24" style="edgeStyle=orthogonalEdgeStyle;rounded=0;orthogonalLoop=1;jettySize=auto;html=1;exitX=0.5;exitY=1;exitDx=0;exitDy=0;" edge="1" parent="1" source="0BYrBF6_0vTvc-OLHNxU-7" target="0BYrBF6_0vTvc-OLHNxU-11">
          <mxGeometry relative="1" as="geometry" />
        </mxCell>
        <mxCell id="0BYrBF6_0vTvc-OLHNxU-25" style="edgeStyle=orthogonalEdgeStyle;rounded=0;orthogonalLoop=1;jettySize=auto;html=1;exitX=0.5;exitY=1;exitDx=0;exitDy=0;entryX=0.5;entryY=0;entryDx=0;entryDy=0;" edge="1" parent="1" source="0BYrBF6_0vTvc-OLHNxU-7" target="0BYrBF6_0vTvc-OLHNxU-12">
          <mxGeometry relative="1" as="geometry" />
        </mxCell>
        <mxCell id="0BYrBF6_0vTvc-OLHNxU-7" value="algo dpa" style="rounded=0;whiteSpace=wrap;html=1;" vertex="1" parent="1">
          <mxGeometry x="559" y="1650" width="120" height="60" as="geometry" />
        </mxCell>
        <mxCell id="0BYrBF6_0vTvc-OLHNxU-9" value="user fse&amp;nbsp;&amp;nbsp;" style="rounded=0;whiteSpace=wrap;html=1;" vertex="1" parent="1">
          <mxGeometry x="350" y="1810" width="120" height="60" as="geometry" />
        </mxCell>
        <mxCell id="0BYrBF6_0vTvc-OLHNxU-10" value="item fse" style="rounded=0;whiteSpace=wrap;html=1;" vertex="1" parent="1">
          <mxGeometry x="510" y="1810" width="120" height="60" as="geometry" />
        </mxCell>
        <mxCell id="0BYrBF6_0vTvc-OLHNxU-11" value="i2i" style="rounded=0;whiteSpace=wrap;html=1;" vertex="1" parent="1">
          <mxGeometry x="679" y="1810" width="120" height="60" as="geometry" />
        </mxCell>
        <mxCell id="0BYrBF6_0vTvc-OLHNxU-12" value="tag2i" style="rounded=0;whiteSpace=wrap;html=1;" vertex="1" parent="1">
          <mxGeometry x="860" y="1810" width="120" height="60" as="geometry" />
        </mxCell>
        <mxCell id="0BYrBF6_0vTvc-OLHNxU-14" style="edgeStyle=orthogonalEdgeStyle;rounded=0;orthogonalLoop=1;jettySize=auto;html=1;exitX=0.5;exitY=0;exitDx=0;exitDy=0;exitPerimeter=0;entryX=0.5;entryY=1;entryDx=0;entryDy=0;" edge="1" parent="1" source="0BYrBF6_0vTvc-OLHNxU-13" target="0BYrBF6_0vTvc-OLHNxU-9">
          <mxGeometry relative="1" as="geometry" />
        </mxCell>
        <mxCell id="0BYrBF6_0vTvc-OLHNxU-15" value="T+1/stream" style="edgeLabel;html=1;align=center;verticalAlign=middle;resizable=0;points=[];" vertex="1" connectable="0" parent="0BYrBF6_0vTvc-OLHNxU-14">
          <mxGeometry x="-0.1052" y="3" relative="1" as="geometry">
            <mxPoint as="offset" />
          </mxGeometry>
        </mxCell>
        <mxCell id="0BYrBF6_0vTvc-OLHNxU-13" value="user静态、 行为事件等" style="shape=cylinder3;whiteSpace=wrap;html=1;boundedLbl=1;backgroundOutline=1;size=15;" vertex="1" parent="1">
          <mxGeometry x="380" y="2020" width="60" height="80" as="geometry" />
        </mxCell>
        <mxCell id="0BYrBF6_0vTvc-OLHNxU-17" style="edgeStyle=orthogonalEdgeStyle;rounded=0;orthogonalLoop=1;jettySize=auto;html=1;exitX=0.5;exitY=0;exitDx=0;exitDy=0;exitPerimeter=0;entryX=0.5;entryY=1;entryDx=0;entryDy=0;" edge="1" parent="1" source="0BYrBF6_0vTvc-OLHNxU-16" target="0BYrBF6_0vTvc-OLHNxU-10">
          <mxGeometry relative="1" as="geometry" />
        </mxCell>
        <mxCell id="0BYrBF6_0vTvc-OLHNxU-18" style="edgeStyle=orthogonalEdgeStyle;rounded=0;orthogonalLoop=1;jettySize=auto;html=1;exitX=0.5;exitY=0;exitDx=0;exitDy=0;exitPerimeter=0;entryX=0.5;entryY=1;entryDx=0;entryDy=0;" edge="1" parent="1" source="0BYrBF6_0vTvc-OLHNxU-16" target="0BYrBF6_0vTvc-OLHNxU-11">
          <mxGeometry relative="1" as="geometry" />
        </mxCell>
        <mxCell id="0BYrBF6_0vTvc-OLHNxU-19" style="edgeStyle=orthogonalEdgeStyle;rounded=0;orthogonalLoop=1;jettySize=auto;html=1;exitX=0.5;exitY=0;exitDx=0;exitDy=0;exitPerimeter=0;entryX=0.5;entryY=1;entryDx=0;entryDy=0;" edge="1" parent="1" source="0BYrBF6_0vTvc-OLHNxU-16" target="0BYrBF6_0vTvc-OLHNxU-12">
          <mxGeometry relative="1" as="geometry" />
        </mxCell>
        <mxCell id="0BYrBF6_0vTvc-OLHNxU-16" value="渠道素材库" style="shape=cylinder3;whiteSpace=wrap;html=1;boundedLbl=1;backgroundOutline=1;size=15;" vertex="1" parent="1">
          <mxGeometry x="709" y="2020" width="60" height="80" as="geometry" />
        </mxCell>
        <mxCell id="0BYrBF6_0vTvc-OLHNxU-20" value="" style="line;strokeWidth=4;html=1;perimeter=backbonePerimeter;points=[];outlineConnect=0;opacity=30;" vertex="1" parent="1">
          <mxGeometry x="286.5" y="1910" width="734.5" height="10" as="geometry" />
        </mxCell>
        <mxCell id="0BYrBF6_0vTvc-OLHNxU-21" value="item特征" style="shape=cylinder3;whiteSpace=wrap;html=1;boundedLbl=1;backgroundOutline=1;size=15;" vertex="1" parent="1">
          <mxGeometry x="810" y="2020" width="60" height="80" as="geometry" />
        </mxCell>
        <mxCell id="0BYrBF6_0vTvc-OLHNxU-26" value="online" style="text;html=1;align=center;verticalAlign=middle;resizable=0;points=[];autosize=1;strokeColor=none;fillColor=none;" vertex="1" parent="1">
          <mxGeometry x="310" y="1430" width="60" height="30" as="geometry" />
        </mxCell>
        <mxCell id="0BYrBF6_0vTvc-OLHNxU-27" value="offline" style="text;html=1;align=center;verticalAlign=middle;resizable=0;points=[];autosize=1;strokeColor=none;fillColor=none;" vertex="1" parent="1">
          <mxGeometry x="310" y="1980" width="60" height="30" as="geometry" />
        </mxCell>
      </root>
    </mxGraphModel>
  </diagram>
</mxfile>
